<svg xmlns="http://www.w3.org/2000/svg" version="1.1" xmlns:xlink="http://www.w3.org/1999/xlink" xmlns:svgjs="http://svgjs.dev/svgjs" viewBox="0 0 800 800"><g shape-rendering="crispEdges"><g><use xlink:href="#SvgjsSymbol1000" x="487.5" y="650" fill="hsl(286, 100%, 51%)"></use><use xlink:href="#SvgjsSymbol1001" x="487.5" y="650" fill="#fd59ff"></use><use xlink:href="#SvgjsSymbol1002" x="487.5" y="650" fill="#8e00cb"></use></g><g><use xlink:href="#SvgjsSymbol1000" x="287.5" y="525" fill="hsl(286, 100%, 51%)"></use><use xlink:href="#SvgjsSymbol1001" x="287.5" y="525" fill="#fd59ff"></use><use xlink:href="#SvgjsSymbol1002" x="287.5" y="525" fill="#8e00cb"></use></g><g><use xlink:href="#SvgjsSymbol1000" x="362.5" y="300" fill="hsl(286, 100%, 51%)"></use><use xlink:href="#SvgjsSymbol1001" x="362.5" y="300" fill="#fd59ff"></use><use xlink:href="#SvgjsSymbol1002" x="362.5" y="300" fill="#8e00cb"></use></g><g><use xlink:href="#SvgjsSymbol1000" x="337.5" y="75" fill="hsl(286, 100%, 51%)"></use><use xlink:href="#SvgjsSymbol1001" x="337.5" y="75" fill="#fd59ff"></use><use xlink:href="#SvgjsSymbol1002" x="337.5" y="75" fill="#8e00cb"></use></g><g><use xlink:href="#SvgjsSymbol1000" x="612.5" y="75" fill="hsl(286, 100%, 51%)"></use><use xlink:href="#SvgjsSymbol1001" x="612.5" y="75" fill="#fd59ff"></use><use xlink:href="#SvgjsSymbol1002" x="612.5" y="75" fill="#8e00cb"></use></g><g><use xlink:href="#SvgjsSymbol1000" x="712.5" y="325" fill="hsl(286, 100%, 51%)"></use><use xlink:href="#SvgjsSymbol1001" x="712.5" y="325" fill="#fd59ff"></use><use xlink:href="#SvgjsSymbol1002" x="712.5" y="325" fill="#8e00cb"></use></g><g><use xlink:href="#SvgjsSymbol1000" x="662.5" y="550" fill="hsl(286, 100%, 51%)"></use><use xlink:href="#SvgjsSymbol1001" x="662.5" y="550" fill="#fd59ff"></use><use xlink:href="#SvgjsSymbol1002" x="662.5" y="550" fill="#8e00cb"></use></g></g><symbol id="SvgjsSymbol1000"><polygon points="0,12.5 25,0 50,12.5 25,25"></polygon></symbol><symbol id="SvgjsSymbol1001"><polygon points="0,12.5 25,25 25,50 0,37.5"></polygon></symbol><symbol id="SvgjsSymbol1002"><polygon points="25,25 50,12.5 50,37.5 25,50"></polygon></symbol><g></g></svg>